# This file uses meters as units for non-parametric coordinates.

v 308.679957 525.973323 -307.341653
v 0.000002 525.973323 -435.201016
v 0.000002 525.973323 1.338247
v -308.679957 525.973323 -307.341653
v -436.539339 525.973323 1.338247
v -308.679957 525.973323 310.018447
v 0.000002 525.973323 437.877511
v 308.679994 525.973323 310.018447
v 436.539376 525.973323 1.338247
v 308.679957 1209.990408 -307.341653
v 0.000002 1209.990408 -435.201016
v 0.000002 1209.990408 1.338247
v -308.679957 1209.990408 -307.341653
v -436.539339 1209.990408 1.338247
v -308.679957 1209.990408 310.018447
v 0.000002 1209.990408 437.877511
v 308.679994 1209.990408 310.018447
v 436.539376 1209.990408 1.338247
vt 0.500000 0.837500
vt 0.610485 0.954235
vt 0.500000 1.000000
vt 0.389515 0.954235
vt 0.343750 0.843750
vt 0.389515 0.733265
vt 0.500000 0.687500
vt 0.610485 0.733265
vt 0.656250 0.843750
vt 0.610485 0.954235
vt 0.500000 1.000000
vt 0.500000 0.837500
vt 0.389515 0.954235
vt 0.343750 0.843750
vt 0.389515 0.733265
vt 0.500000 0.687500
vt 0.610485 0.733265
vt 0.656250 0.843750
vt 0.610485 0.954235
vt 0.500000 1.000000
vt 0.389515 0.954235
vt 0.343750 0.843750
vt 0.389515 0.733265
vt 0.500000 0.687500
vt 0.610485 0.733265
vt 0.656250 0.843750
vn 0.000000 1.000000 0.000000
vn 0.000000 1.000000 0.000000
vn 0.000000 1.000000 0.000000
vn 0.000000 1.000000 0.000000
vn 0.000000 1.000000 0.000000
vn 0.000000 1.000000 0.000000
vn 0.000000 1.000000 0.000000
vn 0.000000 1.000000 0.000000
vn 0.000000 1.000000 0.000000
vn 0.000000 -1.000000 0.000000
vn 0.000000 -1.000000 0.000000
vn 0.000000 -1.000000 0.000000
vn 0.000000 -1.000000 0.000000
vn 0.000000 -1.000000 0.000000
vn 0.000000 -1.000000 0.000000
vn 0.000000 -1.000000 0.000000
vn 0.000000 -1.000000 0.000000
vn 0.000000 -1.000000 0.000000
vn 0.382683 0.000000 -0.923880
vn 0.382683 0.000000 -0.923880
vn 0.382683 0.000000 -0.923880
vn 0.382683 0.000000 -0.923880
vn -0.382683 0.000000 -0.923880
vn -0.382683 0.000000 -0.923880
vn -0.382683 0.000000 -0.923880
vn -0.382683 0.000000 -0.923880
vn -0.923880 0.000000 -0.382683
vn -0.923880 0.000000 -0.382683
vn -0.923880 0.000000 -0.382683
vn -0.923880 0.000000 -0.382683
vn -0.923880 0.000000 0.382683
vn -0.923880 0.000000 0.382683
vn -0.923880 0.000000 0.382683
vn -0.923880 0.000000 0.382683
vn -0.382682 0.000000 0.923880
vn -0.382682 0.000000 0.923880
vn -0.382682 0.000000 0.923880
vn -0.382682 0.000000 0.923880
vn 0.382682 0.000000 0.923880
vn 0.382682 0.000000 0.923880
vn 0.382682 0.000000 0.923880
vn 0.382682 0.000000 0.923880
vn 0.923880 0.000000 0.382683
vn 0.923880 0.000000 0.382683
vn 0.923880 0.000000 0.382683
vn 0.923880 0.000000 0.382683
vn 0.923880 0.000000 -0.382683
vn 0.923880 0.000000 -0.382683
vn 0.923880 0.000000 -0.382683
vn 0.923880 0.000000 -0.382683
f 10/19/1 11/20/2 12/1/3
f 11/20/2 13/21/4 12/1/3
f 13/21/4 14/22/5 12/1/3
f 14/22/5 15/23/6 12/1/3
f 15/23/6 16/24/7 12/1/3
f 16/24/7 17/25/8 12/1/3
f 17/25/8 18/26/9 12/1/3
f 18/26/9 10/19/1 12/1/3
f 1/10/10 3/12/11 2/11/12
f 2/11/12 3/12/11 4/13/13
f 4/13/13 3/12/11 5/14/14
f 5/14/14 3/12/11 6/15/15
f 6/15/15 3/12/11 7/16/16
f 7/16/16 3/12/11 8/17/17
f 8/17/17 3/12/11 9/18/18
f 9/18/18 3/12/11 1/10/10
f 1/2/19 2/3/20 11/20/21 10/19/22
f 2/3/23 4/4/24 13/21/25 11/20/26
f 4/4/27 5/5/28 14/22/29 13/21/30
f 5/5/31 6/6/32 15/23/33 14/22/34
f 6/6/35 7/7/36 16/24/37 15/23/38
f 7/7/39 8/8/40 17/25/41 16/24/42
f 8/8/43 9/9/44 18/26/45 17/25/46
f 9/9/47 1/2/48 10/19/49 18/26/50
